<svg xmlns="http://www.w3.org/2000/svg" fill="none" viewBox="0 0.75 54 40.5">
<path d="M33.75 41.25C44.9338 41.25 54 32.1838 54 21C54 9.81623 44.9338 0.75 33.75 0.75C22.5662 0.75 13.5 9.81623 13.5 21C13.5 32.1838 22.5662 41.25 33.75 41.25Z" fill="#F1F3F4"/>
<path d="M33.75 41.25C44.9338 41.25 54 32.1838 54 21C54 9.81623 44.9338 0.75 33.75 0.75C22.5662 0.75 13.5 9.81623 13.5 21C13.5 32.1838 22.5662 41.25 33.75 41.25Z" fill="url(#paint0_linear_184_16)"/>
<path fill-rule="evenodd" clip-rule="evenodd" d="M33.75 41.25C33.75 31.9299 26.1951 24.375 16.875 24.375C7.55494 24.375 0 31.9299 0 41.25C0.0253125 41.2112 33.7584 41.2247 33.75 41.25Z" fill="#9D9D9D"/>
<defs>
<linearGradient id="paint0_linear_184_16" x1="14.8725" y1="2.12255" x2="54" y2="41.25" gradientUnits="userSpaceOnUse">
<stop stop-color="#DBDBDB"/>
<stop offset="1" stop-color="#BFBFBF"/>
</linearGradient>
</defs>
</svg>