<svg width="35" height="35" viewBox="0 0 35 35" fill="none" xmlns="http://www.w3.org/2000/svg">
<path d="M23 24C29.6274 24 35 18.6274 35 12C35 5.37258 29.6274 0 23 0C16.3726 0 11 5.37258 11 12C11 18.6274 16.3726 24 23 24Z" fill="url(#paint0_linear_7_17)"/>
<path fill-rule="evenodd" clip-rule="evenodd" d="M23 24C23 18.477 18.523 14 13 14C7.477 14 3 18.477 3 24C3.015 23.977 23.005 23.985 23 24Z" fill="#D9D9D9"/>
<line x1="9.41603" y1="27.2774" x2="7.41603" y2="30.2773" stroke="#D9D9D9"/>
<line x1="6.41603" y1="27.2774" x2="4.41603" y2="30.2773" stroke="#D9D9D9"/>
<line x1="8.41603" y1="31.2774" x2="6.41603" y2="34.2774" stroke="#D9D9D9"/>
<line x1="5.41603" y1="31.2774" x2="3.41603" y2="34.2774" stroke="#D9D9D9"/>
<line x1="2.41603" y1="31.2774" x2="0.416025" y2="34.2774" stroke="#D9D9D9"/>
<line x1="3.41603" y1="27.2774" x2="1.41603" y2="30.2773" stroke="#D9D9D9"/>
<line x1="12.416" y1="27.2774" x2="10.416" y2="30.2773" stroke="#D9D9D9"/>
<line x1="15.416" y1="27.2774" x2="13.416" y2="30.2773" stroke="#D9D9D9"/>
<line x1="11.416" y1="31.2774" x2="9.41603" y2="34.2774" stroke="#D9D9D9"/>
<line x1="14.416" y1="31.2774" x2="12.416" y2="34.2774" stroke="#D9D9D9"/>
<line x1="18.416" y1="27.2774" x2="16.416" y2="30.2773" stroke="#D9D9D9"/>
<defs>
<linearGradient id="paint0_linear_7_17" x1="11.8134" y1="0.81336" x2="35" y2="24" gradientUnits="userSpaceOnUse">
<stop stop-color="#DBDBDB"/>
<stop offset="1" stop-color="#BFBFBF"/>
</linearGradient>
</defs>
</svg>
